<svg xmlns="http://www.w3.org/2000/svg" xmlns:xlink="http://www.w3.org/1999/xlink" width="256" zoomAndPan="magnify" viewBox="0 0 192 191.999996" height="256" preserveAspectRatio="xMidYMid meet" version="1.0"><defs><clipPath id="d99d779342"><path d="M 45.554688 0 L 144 0 L 144 177 L 45.554688 177 Z M 45.554688 0 " clip-rule="nonzero"/></clipPath><clipPath id="17dd9e1fe5"><path d="M 80 66 L 146.804688 66 L 146.804688 192 L 80 192 Z M 80 66 " clip-rule="nonzero"/></clipPath></defs><path fill="#5cad5c" d="M 139.652344 172.878906 C 139.382812 173.457031 137.269531 174.566406 136.730469 174.871094 C 131.5 178.054688 125.769531 179.96875 120.886719 183.648438 C 119.042969 185.066406 117.195312 186.636719 114.925781 187.171875 C 111.851562 187.898438 108.699219 186.484375 105.851562 185.101562 C 103.546875 183.992188 101.238281 182.878906 98.929688 181.808594 C 97.660156 181.195312 96.394531 180.582031 95.277344 179.738281 C 93.164062 178.128906 91.738281 175.753906 90.933594 173.226562 C 90.085938 170.695312 89.777344 168.050781 89.546875 165.410156 C 89.433594 163.992188 89.242188 162.535156 89.164062 161.078125 L 63.09375 176.097656 C 61.167969 177.210938 59.207031 176.480469 57.476562 175.5625 C 55.207031 174.335938 49.632812 166.328125 49.632812 164.796875 L 51.75 46.4375 C 51.75 40.730469 55.863281 34.789062 60.824219 31.957031 L 76.089844 23.488281 L 80.472656 24.597656 L 89.085938 15.402344 L 100.355469 8.316406 L 109.542969 5.402344 C 112.082031 3.945312 119.082031 6.054688 121.273438 7.316406 C 123.503906 8.582031 125.078125 10.957031 125.078125 13.871094 L 125.078125 133.03125 C 125.078125 137.589844 122.617188 141.804688 118.65625 144.105469 L 117.851562 144.566406 C 117.925781 145.214844 117.925781 145.90625 117.925781 146.558594 C 117.886719 149.316406 117.503906 152.152344 118.386719 154.757812 C 119.65625 158.511719 123.234375 160.964844 126.578125 163.109375 C 129.578125 165.027344 132.539062 166.941406 135.539062 168.855469 C 136.230469 169.316406 138.039062 169.777344 138.539062 170.464844 C 139.078125 171.117188 140.039062 172.152344 139.652344 172.878906 Z M 139.652344 172.878906 " fill-opacity="1" fill-rule="nonzero"/><path fill="#182d88" d="M 112.964844 102.457031 L 117.042969 104.792969 L 79.128906 129.390625 L 79.128906 138.050781 L 76.050781 140.734375 L 72.011719 138.433594 C 71.589844 138.167969 71.28125 137.707031 71.28125 137.132812 L 71.28125 127.398438 C 71.28125 126.019531 72.011719 124.71875 73.242188 124.027344 L 110.734375 102.457031 C 111.429688 102.035156 112.273438 102.074219 112.964844 102.457031 Z M 142 69.3125 L 118.15625 55.597656 L 117.042969 45.058594 L 112.964844 42.722656 C 112.3125 42.339844 111.464844 42.300781 110.699219 42.722656 L 73.207031 64.292969 C 72.011719 64.984375 71.246094 66.285156 71.246094 67.664062 L 71.246094 77.398438 C 71.246094 77.972656 71.550781 78.433594 71.976562 78.699219 L 76.011719 81 L 81.894531 75.863281 L 86.546875 77.589844 L 111.351562 91.613281 C 113.003906 92.570312 115.964844 91.691406 117.621094 90.730469 L 142.269531 76.324219 C 143.382812 75.671875 143.652344 73.296875 143.652344 72.1875 C 143.652344 71.039062 143.113281 69.925781 142 69.3125 Z M 142 69.3125 " fill-opacity="1" fill-rule="nonzero"/><g clip-path="url(#d99d779342)"><path fill="#091967" d="M 48.132812 170.3125 C 46.671875 169.507812 45.59375 167.976562 45.59375 166.058594 L 45.59375 44.0625 C 45.59375 38.355469 48.671875 33.027344 53.632812 30.191406 L 103.546875 1.496094 C 106.121094 0 109.003906 0.230469 111.234375 1.53125 L 121.3125 7.355469 C 119.082031 6.09375 116.273438 5.902344 113.734375 7.355469 L 104.8125 12.453125 L 102.507812 20.730469 L 78.859375 34.332031 L 76.859375 28.546875 L 63.824219 36.054688 C 58.863281 38.929688 55.785156 44.214844 55.785156 49.925781 L 55.785156 171.921875 C 55.785156 173.761719 56.785156 175.257812 58.167969 176.097656 Z M 58.246094 176.136719 C 58.285156 176.136719 58.285156 176.136719 58.246094 176.136719 C 58.285156 176.136719 58.246094 176.136719 58.246094 176.136719 Z M 79.820312 132.074219 L 79.820312 134.527344 L 113.042969 115.40625 L 113.042969 112.953125 L 112.273438 113.414062 L 97.199219 123.757812 L 80.125 131.882812 Z M 84.78125 69.3125 L 82.394531 70.691406 L 100.390625 81.039062 L 102.777344 79.660156 Z M 143.652344 72.148438 C 143.652344 73.257812 143.113281 74.371094 142 75.023438 L 116.042969 89.964844 C 114.390625 90.921875 112.351562 90.921875 110.699219 89.964844 L 79.820312 72.148438 L 77.820312 71.382812 L 77.167969 75.941406 L 84.242188 77.167969 L 110.734375 92.417969 C 112.390625 93.375 114.425781 93.375 116.082031 92.417969 L 142.039062 77.472656 C 143.152344 76.824219 143.691406 75.710938 143.691406 74.601562 Z M 143.652344 72.148438 " fill-opacity="1" fill-rule="nonzero"/></g><g clip-path="url(#17dd9e1fe5)"><path fill="#dedce1" d="M 143.039062 172.726562 L 146.765625 173.570312 L 123.578125 160.199219 C 121.464844 158.972656 119.773438 156.023438 119.773438 153.609375 L 119.773438 122.152344 C 119.773438 120.464844 118.964844 118.546875 117.773438 117.132812 C 117.964844 116.058594 117.003906 114.792969 116.351562 114.410156 L 113.082031 113.914062 L 112.3125 113.453125 L 91.355469 120.003906 L 80.125 131.882812 L 82.242188 133.109375 L 80.820312 135.140625 C 81.589844 135.597656 84.855469 136.441406 85.894531 135.984375 C 86.933594 137.363281 87.625 139.125 87.625 140.617188 L 87.625 172.039062 C 87.625 174.453125 89.355469 177.441406 91.433594 178.628906 L 114.621094 192 L 113.503906 189.664062 L 117.351562 190.542969 L 116.195312 188.128906 L 120.042969 189.011719 L 118.886719 186.597656 L 122.734375 187.480469 L 121.578125 185.066406 L 125.425781 185.945312 L 124.273438 183.53125 L 128.117188 184.414062 L 126.964844 182 L 130.808594 182.878906 L 129.65625 180.46875 L 133.5 181.347656 L 132.347656 178.933594 L 136.191406 179.816406 L 135.039062 177.402344 L 138.882812 178.28125 L 137.730469 175.867188 L 141.574219 176.75 L 140.421875 174.335938 L 144.269531 175.21875 Z M 123.695312 163.683594 L 125.808594 164.910156 L 121.042969 167.707031 L 118.925781 166.480469 Z M 118.082031 159.546875 C 118.503906 160.160156 119.003906 160.734375 119.542969 161.15625 L 115.160156 163.722656 C 114.695312 163.1875 114.3125 162.574219 114.003906 161.921875 Z M 113.234375 157.4375 L 113.234375 154.988281 L 116.621094 153.03125 L 116.621094 155.21875 C 116.621094 155.292969 116.621094 155.410156 116.621094 155.484375 Z M 116.582031 138.242188 L 116.582031 140.695312 L 113.195312 142.648438 L 113.195312 140.195312 Z M 113.234375 135.253906 L 113.234375 132.800781 L 116.621094 130.847656 L 116.621094 133.300781 Z M 116.582031 145.636719 L 116.582031 148.089844 L 113.195312 150.042969 L 113.195312 147.59375 Z M 116.582031 123.453125 C 116.582031 123.566406 116.582031 123.683594 116.582031 123.796875 L 116.582031 125.90625 L 113.195312 127.859375 L 113.195312 127.398438 C 113.195312 126.824219 113.082031 126.171875 112.929688 125.5625 Z M 92.355469 154.796875 L 92.355469 152.34375 L 107.042969 143.800781 L 107.042969 146.25 Z M 103.699219 153.148438 L 103.699219 155.601562 L 92.355469 162.191406 L 92.355469 159.738281 Z M 92.355469 147.402344 L 92.355469 144.949219 L 110.121094 134.601562 L 110.121094 137.054688 Z M 108.503906 128.128906 C 108.699219 128.777344 108.8125 129.390625 108.8125 130.003906 L 108.8125 130.425781 L 92.355469 140.003906 L 92.355469 138.089844 C 92.355469 137.898438 92.355469 137.707031 92.316406 137.554688 Z M 92.355469 169.507812 L 92.355469 167.132812 L 110.121094 156.789062 L 110.121094 159.238281 L 92.394531 169.585938 C 92.355469 169.585938 92.355469 169.546875 92.355469 169.507812 Z M 93.777344 173.722656 L 109.582031 164.527344 C 109.890625 165.179688 110.273438 165.792969 110.699219 166.328125 L 95.164062 175.371094 C 94.664062 174.910156 94.164062 174.335938 93.777344 173.722656 Z M 99.277344 177.898438 L 113.042969 169.890625 L 115.160156 171.117188 L 101.390625 179.125 Z M 105.660156 181.578125 L 115.964844 175.5625 L 118.082031 176.789062 L 107.773438 182.804688 Z M 113.851562 186.328125 L 111.734375 185.101562 L 126.886719 176.289062 L 129 177.515625 Z M 127.425781 171.386719 L 125.308594 170.160156 L 130.078125 167.363281 L 132.191406 168.589844 Z M 133.460938 174.871094 L 131.347656 173.648438 L 136.117188 170.851562 L 138.230469 172.074219 Z M 92.546875 67.589844 L 92.625 67.550781 L 91.277344 66.746094 L 91.125 66.824219 C 91.085938 66.859375 91.046875 66.859375 91.007812 66.859375 C 90.972656 66.859375 90.933594 66.859375 90.894531 66.824219 C 90.855469 66.824219 90.855469 66.785156 90.855469 66.785156 C 90.855469 66.746094 90.894531 66.746094 90.933594 66.707031 L 91.277344 66.515625 L 93.007812 67.511719 L 92.703125 67.664062 L 89.546875 68.585938 C 89.507812 68.585938 89.472656 68.625 89.433594 68.585938 C 89.394531 68.585938 89.394531 68.585938 89.355469 68.546875 C 89.316406 68.546875 89.316406 68.507812 89.316406 68.507812 C 89.316406 68.46875 89.316406 68.46875 89.355469 68.46875 C 89.355469 68.46875 89.394531 68.46875 89.433594 68.433594 Z M 92.777344 69.273438 C 93.046875 69.238281 93.316406 69.238281 93.507812 69.273438 C 93.699219 69.3125 93.894531 69.351562 94.046875 69.429688 C 94.238281 69.542969 94.355469 69.695312 94.355469 69.886719 C 94.355469 70.078125 94.238281 70.234375 93.96875 70.386719 C 93.738281 70.5 93.46875 70.578125 93.164062 70.617188 C 92.855469 70.652344 92.546875 70.578125 92.277344 70.425781 C 92.125 70.347656 92.007812 70.195312 91.96875 70.078125 C 91.933594 69.925781 91.96875 69.773438 92.085938 69.621094 C 92.238281 69.429688 92.46875 69.238281 92.777344 69.042969 C 93.007812 68.929688 93.277344 68.816406 93.585938 68.738281 C 93.816406 68.699219 94.046875 68.660156 94.277344 68.660156 C 94.507812 68.660156 94.738281 68.699219 94.96875 68.738281 C 95.199219 68.777344 95.429688 68.851562 95.585938 68.96875 C 95.699219 69.042969 95.777344 69.121094 95.816406 69.199219 C 95.816406 69.238281 95.816406 69.273438 95.777344 69.273438 C 95.738281 69.273438 95.738281 69.3125 95.699219 69.3125 C 95.664062 69.3125 95.625 69.3125 95.625 69.273438 C 95.585938 69.273438 95.585938 69.238281 95.585938 69.238281 C 95.546875 69.199219 95.507812 69.121094 95.394531 69.082031 C 95.085938 68.929688 94.699219 68.816406 94.199219 68.816406 C 93.699219 68.816406 93.316406 68.929688 92.96875 69.121094 C 92.96875 69.160156 92.894531 69.199219 92.777344 69.273438 Z M 92.546875 69.464844 C 92.355469 69.65625 92.238281 69.8125 92.238281 69.964844 C 92.238281 70.117188 92.316406 70.234375 92.507812 70.308594 C 92.664062 70.425781 92.894531 70.460938 93.125 70.460938 C 93.355469 70.460938 93.585938 70.386719 93.816406 70.269531 C 94.007812 70.15625 94.125 70.042969 94.125 69.886719 C 94.125 69.734375 94.046875 69.621094 93.894531 69.542969 C 93.738281 69.464844 93.546875 69.429688 93.277344 69.390625 C 93.085938 69.390625 92.855469 69.429688 92.546875 69.464844 Z M 97.046875 70.078125 L 96.125 70.617188 C 96.277344 70.652344 96.429688 70.691406 96.546875 70.730469 C 96.660156 70.769531 96.777344 70.847656 96.855469 70.882812 C 97.085938 71.039062 97.199219 71.191406 97.199219 71.382812 C 97.199219 71.574219 97.046875 71.726562 96.816406 71.878906 C 96.507812 72.035156 96.199219 72.148438 95.816406 72.148438 C 95.46875 72.148438 95.125 72.070312 94.855469 71.917969 C 94.664062 71.804688 94.546875 71.6875 94.46875 71.535156 C 94.394531 71.421875 94.355469 71.34375 94.355469 71.230469 C 94.355469 71.152344 94.355469 71.113281 94.394531 71.113281 C 94.433594 71.113281 94.46875 71.074219 94.46875 71.074219 C 94.507812 71.074219 94.546875 71.074219 94.546875 71.113281 C 94.585938 71.113281 94.585938 71.152344 94.585938 71.191406 C 94.625 71.457031 94.738281 71.648438 95.007812 71.804688 C 95.238281 71.917969 95.46875 71.996094 95.777344 71.996094 C 96.085938 71.996094 96.355469 71.917969 96.585938 71.765625 C 96.777344 71.648438 96.894531 71.496094 96.894531 71.382812 C 96.894531 71.230469 96.816406 71.113281 96.625 71 C 96.429688 70.882812 96.164062 70.808594 95.894531 70.730469 C 95.816406 70.730469 95.777344 70.691406 95.738281 70.691406 C 95.699219 70.691406 95.699219 70.652344 95.699219 70.652344 C 95.699219 70.617188 95.699219 70.617188 95.738281 70.617188 L 96.96875 69.925781 L 98.316406 70.691406 C 98.355469 70.730469 98.390625 70.730469 98.390625 70.769531 C 98.390625 70.808594 98.390625 70.808594 98.355469 70.808594 C 98.316406 70.808594 98.277344 70.847656 98.277344 70.847656 C 98.238281 70.847656 98.199219 70.847656 98.160156 70.808594 Z M 98.890625 73.257812 L 97.625 72.53125 L 97.855469 72.417969 L 100.699219 71.996094 L 101.085938 72.226562 L 99.277344 73.257812 L 99.429688 73.335938 C 99.46875 73.375 99.507812 73.375 99.507812 73.414062 C 99.507812 73.453125 99.507812 73.453125 99.46875 73.453125 C 99.429688 73.453125 99.390625 73.488281 99.390625 73.488281 C 99.355469 73.488281 99.316406 73.488281 99.277344 73.453125 L 99.125 73.375 L 98.546875 73.71875 L 98.699219 73.796875 C 98.738281 73.835938 98.777344 73.835938 98.777344 73.871094 C 98.777344 73.910156 98.777344 73.910156 98.738281 73.910156 C 98.699219 73.910156 98.660156 73.949219 98.660156 73.949219 C 98.625 73.949219 98.585938 73.949219 98.546875 73.910156 L 97.855469 73.488281 C 97.816406 73.453125 97.777344 73.453125 97.777344 73.414062 C 97.777344 73.375 97.777344 73.375 97.816406 73.375 C 97.855469 73.375 97.890625 73.335938 97.929688 73.335938 C 97.96875 73.335938 98.007812 73.335938 98.046875 73.375 L 98.390625 73.566406 Z M 99.085938 73.144531 L 100.699219 72.226562 L 100.585938 72.1875 L 98.007812 72.570312 Z M 105.238281 76.058594 C 105.351562 76.210938 105.351562 76.324219 105.3125 76.476562 C 105.277344 76.59375 105.199219 76.707031 105.046875 76.785156 C 104.8125 76.898438 104.546875 76.976562 104.160156 76.976562 C 103.8125 76.976562 103.507812 76.898438 103.199219 76.707031 C 103.046875 76.632812 102.890625 76.476562 102.777344 76.363281 C 102.660156 76.210938 102.621094 76.09375 102.621094 76.019531 C 102.621094 75.980469 102.621094 75.980469 102.660156 75.941406 C 102.699219 75.941406 102.699219 75.902344 102.738281 75.902344 C 102.777344 75.902344 102.816406 75.902344 102.816406 75.941406 C 102.816406 75.980469 102.851562 75.980469 102.851562 76.019531 C 102.929688 76.25 103.082031 76.441406 103.351562 76.59375 C 103.582031 76.707031 103.8125 76.785156 104.121094 76.785156 C 104.390625 76.785156 104.621094 76.746094 104.777344 76.667969 C 104.890625 76.59375 104.96875 76.515625 105.007812 76.441406 C 105.046875 76.324219 105.007812 76.210938 104.929688 76.132812 C 104.851562 76.019531 104.738281 75.902344 104.621094 75.828125 C 104.582031 75.789062 104.546875 75.789062 104.546875 75.75 C 104.546875 75.710938 104.546875 75.710938 104.582031 75.710938 C 104.621094 75.710938 104.660156 75.671875 104.660156 75.671875 C 104.660156 75.671875 104.738281 75.671875 104.777344 75.710938 L 104.929688 75.789062 C 105.082031 75.902344 105.277344 75.941406 105.507812 75.941406 C 105.738281 75.941406 105.890625 75.902344 106.042969 75.828125 C 106.199219 75.75 106.238281 75.636719 106.238281 75.519531 C 106.238281 75.40625 106.121094 75.289062 105.929688 75.175781 C 105.8125 75.097656 105.660156 75.058594 105.507812 75.023438 C 105.351562 74.984375 105.199219 74.984375 105.046875 74.984375 C 105.007812 74.984375 104.96875 74.984375 104.929688 74.984375 C 104.890625 74.984375 104.890625 74.984375 104.890625 74.945312 C 104.851562 74.945312 104.851562 74.90625 104.851562 74.90625 C 104.851562 74.867188 104.851562 74.867188 104.890625 74.867188 C 104.96875 74.832031 105.082031 74.832031 105.3125 74.867188 C 105.621094 74.90625 105.890625 74.984375 106.121094 75.136719 C 106.351562 75.289062 106.507812 75.445312 106.507812 75.597656 C 106.507812 75.75 106.429688 75.902344 106.238281 76.019531 C 106.121094 76.09375 105.96875 76.132812 105.777344 76.171875 C 105.621094 76.09375 105.429688 76.09375 105.238281 76.058594 Z M 105.46875 77.703125 L 106.929688 78.546875 L 107.007812 78.507812 C 107.042969 78.46875 107.082031 78.46875 107.121094 78.46875 C 107.160156 78.46875 107.199219 78.46875 107.238281 78.507812 C 107.273438 78.507812 107.273438 78.546875 107.273438 78.546875 C 107.273438 78.585938 107.238281 78.585938 107.199219 78.625 L 106.929688 78.777344 L 105.082031 77.703125 L 105.351562 77.550781 C 106.082031 77.589844 106.8125 77.589844 107.507812 77.628906 C 107.851562 77.628906 108.082031 77.628906 108.199219 77.628906 C 108.351562 77.628906 108.46875 77.589844 108.542969 77.589844 C 108.621094 77.550781 108.699219 77.550781 108.738281 77.511719 C 108.890625 77.4375 108.96875 77.320312 108.96875 77.167969 C 108.96875 77.015625 108.851562 76.898438 108.660156 76.785156 C 108.503906 76.667969 108.3125 76.632812 108.082031 76.59375 C 107.851562 76.554688 107.660156 76.59375 107.507812 76.632812 C 107.46875 76.632812 107.429688 76.667969 107.390625 76.667969 C 107.351562 76.667969 107.3125 76.667969 107.3125 76.632812 C 107.273438 76.632812 107.273438 76.59375 107.273438 76.59375 C 107.273438 76.554688 107.273438 76.554688 107.3125 76.554688 C 107.390625 76.515625 107.507812 76.476562 107.738281 76.476562 C 107.929688 76.441406 108.160156 76.476562 108.351562 76.515625 C 108.542969 76.554688 108.738281 76.632812 108.890625 76.707031 C 109.121094 76.859375 109.238281 77.015625 109.273438 77.207031 C 109.273438 77.398438 109.199219 77.550781 108.96875 77.664062 C 108.890625 77.703125 108.773438 77.742188 108.699219 77.78125 C 108.582031 77.820312 108.46875 77.820312 108.3125 77.820312 C 108.160156 77.820312 107.890625 77.820312 107.542969 77.820312 C 106.699219 77.742188 106.007812 77.742188 105.46875 77.703125 Z M 111.773438 78.355469 L 109.160156 79.851562 L 109.8125 80.234375 C 109.851562 80.269531 109.890625 80.269531 109.890625 80.308594 C 109.890625 80.347656 109.890625 80.347656 109.851562 80.347656 C 109.8125 80.347656 109.773438 80.386719 109.773438 80.386719 C 109.734375 80.386719 109.699219 80.386719 109.660156 80.347656 L 108.160156 79.464844 C 108.121094 79.429688 108.082031 79.429688 108.082031 79.390625 C 108.082031 79.351562 108.082031 79.351562 108.121094 79.351562 C 108.160156 79.351562 108.199219 79.3125 108.238281 79.3125 C 108.273438 79.3125 108.3125 79.3125 108.351562 79.351562 L 109.003906 79.734375 L 111.390625 78.394531 L 110.582031 78.125 C 110.542969 78.125 110.503906 78.085938 110.503906 78.085938 C 110.46875 78.085938 110.46875 78.050781 110.46875 78.050781 C 110.46875 78.050781 110.46875 78.011719 110.503906 78.011719 C 110.542969 78.011719 110.542969 77.972656 110.582031 77.972656 C 110.621094 77.972656 110.660156 77.972656 110.699219 78.011719 Z M 114.160156 81.074219 L 113.695312 81.34375 C 113.3125 81.574219 112.890625 81.6875 112.464844 81.726562 C 112.121094 81.726562 111.851562 81.6875 111.621094 81.535156 C 111.503906 81.460938 111.429688 81.382812 111.351562 81.304688 C 111.3125 81.230469 111.273438 81.152344 111.273438 81.039062 C 111.273438 81 111.3125 80.921875 111.351562 80.808594 C 111.390625 80.691406 111.464844 80.65625 111.542969 80.578125 C 111.621094 80.5 111.773438 80.386719 111.929688 80.308594 L 112.390625 80.042969 C 112.773438 79.8125 113.195312 79.695312 113.621094 79.660156 C 113.964844 79.660156 114.234375 79.695312 114.464844 79.851562 C 114.582031 79.925781 114.660156 80.003906 114.734375 80.078125 C 114.773438 80.15625 114.8125 80.234375 114.8125 80.347656 C 114.8125 80.386719 114.773438 80.464844 114.734375 80.578125 C 114.695312 80.691406 114.621094 80.730469 114.542969 80.808594 C 114.464844 80.882812 114.3125 81 114.160156 81.074219 Z M 113.925781 81 C 114.121094 80.882812 114.234375 80.808594 114.351562 80.691406 C 114.464844 80.578125 114.503906 80.464844 114.542969 80.386719 C 114.542969 80.347656 114.542969 80.269531 114.542969 80.234375 C 114.503906 80.15625 114.425781 80.078125 114.3125 80.003906 C 114.082031 79.886719 113.8125 79.851562 113.503906 79.886719 C 113.160156 79.925781 112.851562 80.042969 112.582031 80.195312 L 112.160156 80.425781 C 111.964844 80.539062 111.851562 80.617188 111.734375 80.730469 C 111.621094 80.847656 111.582031 80.960938 111.542969 81.039062 C 111.542969 81.074219 111.542969 81.152344 111.542969 81.191406 C 111.582031 81.269531 111.660156 81.34375 111.773438 81.421875 C 111.964844 81.535156 112.273438 81.574219 112.582031 81.535156 C 112.929688 81.496094 113.234375 81.382812 113.503906 81.230469 Z M 113.925781 81 " fill-opacity="1" fill-rule="nonzero"/></g><path fill="#fecf47" d="M 85.933594 135.984375 L 77.589844 140.773438 C 77.050781 141.078125 76.472656 141.039062 76.011719 140.734375 C 75.589844 140.464844 75.320312 140.003906 75.320312 139.46875 L 75.320312 129.738281 C 75.320312 128.359375 76.050781 127.054688 77.28125 126.363281 L 114.773438 104.792969 C 115.542969 104.371094 116.390625 104.410156 117.042969 104.792969 C 117.695312 105.175781 118.15625 105.867188 118.15625 106.746094 L 118.15625 115.523438 C 118.15625 116.058594 118.003906 116.59375 117.773438 117.09375 C 117.234375 116.441406 116.621094 115.90625 115.964844 115.523438 L 113.082031 113.835938 L 113.082031 112.917969 L 112.3125 113.375 L 112.273438 113.335938 L 80.050781 131.882812 L 80.089844 131.921875 L 79.78125 132.074219 L 79.78125 134.527344 L 82.203125 133.148438 L 83.78125 134.066406 C 84.585938 134.488281 85.316406 135.179688 85.933594 135.984375 Z M 130.960938 73.644531 L 137.539062 69.847656 L 134.808594 68.277344 L 128.234375 72.070312 Z M 132.15625 69.503906 L 129.578125 68.011719 L 127.769531 69.042969 L 130.347656 70.539062 Z M 135.808594 71.191406 L 138.691406 72.839844 L 139.769531 72.226562 C 140.191406 71.996094 140.191406 71.382812 139.769531 71.152344 L 137.808594 70.042969 Z M 133.230469 72.648438 L 131.230469 73.796875 L 133.117188 74.867188 C 133.730469 75.214844 134.460938 75.214844 135.078125 74.867188 L 136.117188 74.292969 Z M 126.308594 70.960938 L 127.964844 71.917969 L 129.964844 70.769531 L 127.386719 69.273438 L 126.308594 69.886719 C 125.886719 70.117188 125.886719 70.730469 126.308594 70.960938 Z M 132.5 69.273438 L 134.5 68.125 L 132.730469 67.089844 C 132.230469 66.785156 131.617188 66.785156 131.117188 67.089844 L 129.925781 67.78125 Z M 136.5 74.101562 L 138.308594 73.066406 L 135.421875 71.421875 L 133.617188 72.453125 Z M 79.820312 74.640625 L 79.820312 72.148438 L 113.390625 52.835938 L 118.15625 55.558594 L 118.15625 46.9375 C 118.15625 46.054688 117.695312 45.367188 117.042969 44.984375 C 116.390625 44.597656 115.542969 44.5625 114.773438 44.984375 L 77.28125 66.554688 C 76.089844 67.242188 75.320312 68.546875 75.320312 69.925781 L 75.320312 79.660156 C 75.320312 80.234375 75.628906 80.65625 76.011719 80.921875 C 76.472656 81.230469 77.050781 81.269531 77.589844 80.960938 L 84.242188 77.128906 Z M 79.820312 74.640625 " fill-opacity="1" fill-rule="nonzero"/></svg>