<svg xmlns="http://www.w3.org/2000/svg" xmlns:xlink="http://www.w3.org/1999/xlink" width="256" zoomAndPan="magnify" viewBox="0 0 192 191.999996" height="256" preserveAspectRatio="xMidYMid meet" version="1.0"><path fill="#100f0d" d="M 145.675781 129.082031 C 134.0625 144.871094 115.488281 154.285156 96 154.285156 C 76.511719 154.285156 57.9375 144.871094 46.324219 129.082031 C 45.738281 128.289062 45.523438 127.300781 45.738281 126.335938 C 49.675781 107.878906 63.535156 93.441406 80.945312 88.042969 C 73.5 83.128906 68.570312 74.707031 68.570312 65.144531 C 68.570312 50.023438 80.878906 37.714844 96 37.714844 C 111.121094 37.714844 123.429688 50.023438 123.429688 65.144531 C 123.429688 74.707031 118.5 83.128906 111.054688 88.042969 C 128.464844 93.441406 142.324219 107.878906 146.261719 126.335938 C 146.476562 127.300781 146.261719 128.289062 145.675781 129.082031 Z M 96 0 C 43.058594 0 0 43.058594 0 96 C 0 148.941406 43.058594 192 96 192 C 148.941406 192 192 148.941406 192 96 C 192 43.058594 148.941406 0 96 0 " fill-opacity="1" fill-rule="nonzero"/><path fill="#100f0d" d="M 96 85.714844 C 107.34375 85.714844 116.570312 76.488281 116.570312 65.144531 C 116.570312 53.800781 107.34375 44.570312 96 44.570312 C 84.65625 44.570312 75.429688 53.800781 75.429688 65.144531 C 75.429688 76.488281 84.65625 85.714844 96 85.714844 " fill-opacity="1" fill-rule="nonzero"/><path fill="#100f0d" d="M 96 92.570312 C 75.644531 92.570312 57.710938 106.648438 52.78125 126.269531 C 63.28125 139.742188 78.949219 147.429688 96 147.429688 C 113.050781 147.429688 128.71875 139.742188 139.21875 126.269531 C 134.289062 106.648438 116.355469 92.570312 96 92.570312 " fill-opacity="1" fill-rule="nonzero"/></svg>